<svg width="24" height="24" viewBox="0 0 24 24" fill="none" xmlns="http://www.w3.org/2000/svg">
<g id="Actions.forma.star.estrella">
<rect width="24" height="24" fill="white"/>
<g id="Vector">
<mask id="path-1-inside-1_2503_8776" fill="white">
<path d="M12.5983 3.11651L15.3495 8.56717L20.6448 9.09176C20.7708 9.10223 20.8913 9.14861 20.9918 9.2254C21.0923 9.30219 21.1687 9.40617 21.212 9.52504C21.2552 9.64391 21.2635 9.77269 21.2359 9.89612C21.2082 10.0196 21.1457 10.1325 21.0559 10.2215L16.698 14.5408L18.3137 20.4099C18.3468 20.5344 18.3432 20.6658 18.3033 20.7883C18.2635 20.9108 18.1891 21.0192 18.0891 21.1004C17.9891 21.1816 17.8678 21.2322 17.7398 21.2461C17.6117 21.26 17.4824 21.2366 17.3673 21.1787L11.9989 18.5204L6.63785 21.1755C6.52277 21.2333 6.39343 21.2567 6.26538 21.2428C6.13733 21.2289 6.01602 21.1783 5.91605 21.0971C5.81607 21.0159 5.74169 20.9075 5.70184 20.785C5.662 20.6625 5.65839 20.5311 5.69144 20.4067L7.30715 14.5375L2.94597 10.2182C2.85612 10.1292 2.79368 10.0163 2.76602 9.89283C2.73836 9.7694 2.74665 9.64062 2.7899 9.52175C2.83316 9.40288 2.90957 9.2989 3.01009 9.22211C3.11061 9.14532 3.23103 9.09894 3.35709 9.08847L8.65234 8.56388L11.3995 3.11651C11.456 3.00617 11.5418 2.91356 11.6476 2.84889C11.7533 2.78422 11.8749 2.75 11.9989 2.75C12.1228 2.75 12.2444 2.78422 12.3502 2.84889C12.4559 2.91356 12.5418 3.00617 12.5983 3.11651Z"/>
<path fill-rule="evenodd" clip-rule="evenodd" d="M11.9989 3.59346L9.32201 8.90159C9.20644 9.13076 8.9817 9.28492 8.72628 9.31022L3.60705 9.81738L7.83491 14.0046C8.02752 14.1953 8.1022 14.4752 8.03025 14.7365L6.46446 20.4244L11.666 17.8483C11.8758 17.7445 12.122 17.7445 12.3317 17.8483L17.5407 20.4277L15.9749 14.7398C15.903 14.4786 15.9776 14.1988 16.17 14.0081L20.3949 9.82068L15.2756 9.31351C15.0203 9.28822 14.7956 9.13416 14.68 8.90512L11.9989 3.59346ZM11.2563 2.20902C11.4799 2.07233 11.7368 2 11.9989 2C12.2609 2 12.5179 2.07233 12.7414 2.20902C12.965 2.34571 13.1465 2.54146 13.2659 2.7747L13.2678 2.77855L15.8334 7.86143L20.7139 8.34494C20.9803 8.36841 21.2345 8.46704 21.4471 8.62941C21.6615 8.7932 21.8245 9.01501 21.9167 9.26857C22.009 9.52213 22.0267 9.79681 21.9677 10.0601C21.9087 10.3234 21.7755 10.5643 21.5839 10.7542L17.5375 14.7646L19.0386 20.2175C19.1088 20.4816 19.1011 20.7604 19.0165 21.0203C18.932 21.2802 18.7741 21.5102 18.562 21.6825C18.3499 21.8548 18.0925 21.9622 17.8207 21.9917C17.5499 22.0211 17.2764 21.9719 17.0329 21.8501L17.0304 21.8488L11.9989 19.3574L6.97478 21.8455L6.97238 21.8467C6.7288 21.9686 6.45526 22.0178 6.18442 21.9884C5.9127 21.9589 5.65529 21.8515 5.44316 21.6792C5.23102 21.5069 5.07318 21.2769 4.98863 21.017C4.90408 20.7571 4.89642 20.4783 4.96656 20.2142L4.96831 20.2076L6.46757 14.7615L2.41821 10.7511C2.22656 10.5612 2.09316 10.3201 2.03417 10.0568C1.97517 9.79353 1.99285 9.51884 2.08512 9.26528C2.17739 9.01172 2.34038 8.78991 2.5548 8.62612C2.76735 8.46375 3.0216 8.36512 3.28794 8.34165L8.16826 7.85816L10.7319 2.77469C10.8513 2.54146 11.0328 2.34571 11.2563 2.20902Z"/>
</mask>
<path fill-rule="evenodd" clip-rule="evenodd" d="M11.9989 3.59346L9.32201 8.90159C9.20644 9.13076 8.9817 9.28492 8.72628 9.31022L3.60705 9.81738L7.83491 14.0046C8.02752 14.1953 8.1022 14.4752 8.03025 14.7365L6.46446 20.4244L11.666 17.8483C11.8758 17.7445 12.122 17.7445 12.3317 17.8483L17.5407 20.4277L15.9749 14.7398C15.903 14.4786 15.9776 14.1988 16.17 14.0081L20.3949 9.82068L15.2756 9.31351C15.0203 9.28822 14.7956 9.13416 14.68 8.90512L11.9989 3.59346ZM11.2563 2.20902C11.4799 2.07233 11.7368 2 11.9989 2C12.2609 2 12.5179 2.07233 12.7414 2.20902C12.965 2.34571 13.1465 2.54146 13.2659 2.7747L13.2678 2.77855L15.8334 7.86143L20.7139 8.34494C20.9803 8.36841 21.2345 8.46704 21.4471 8.62941C21.6615 8.7932 21.8245 9.01501 21.9167 9.26857C22.009 9.52213 22.0267 9.79681 21.9677 10.0601C21.9087 10.3234 21.7755 10.5643 21.5839 10.7542L17.5375 14.7646L19.0386 20.2175C19.1088 20.4816 19.1011 20.7604 19.0165 21.0203C18.932 21.2802 18.7741 21.5102 18.562 21.6825C18.3499 21.8548 18.0925 21.9622 17.8207 21.9917C17.5499 22.0211 17.2764 21.9719 17.0329 21.8501L17.0304 21.8488L11.9989 19.3574L6.97478 21.8455L6.97238 21.8467C6.7288 21.9686 6.45526 22.0178 6.18442 21.9884C5.9127 21.9589 5.65529 21.8515 5.44316 21.6792C5.23102 21.5069 5.07318 21.2769 4.98863 21.017C4.90408 20.7571 4.89642 20.4783 4.96656 20.2142L4.96831 20.2076L6.46757 14.7615L2.41821 10.7511C2.22656 10.5612 2.09316 10.3201 2.03417 10.0568C1.97517 9.79353 1.99285 9.51884 2.08512 9.26528C2.17739 9.01172 2.34038 8.78991 2.5548 8.62612C2.76735 8.46375 3.0216 8.36512 3.28794 8.34165L8.16826 7.85816L10.7319 2.77469C10.8513 2.54146 11.0328 2.34571 11.2563 2.20902Z" fill="#FFDD35"/>
<path d="M12.5983 3.11651L21.5255 -1.38953C21.5169 -1.4067 21.5082 -1.42384 21.4994 -1.44095L12.5983 3.11651ZM15.3495 8.56717L6.42229 13.0732C7.96377 16.1271 10.9594 18.1812 14.3637 18.5185L15.3495 8.56717ZM20.6448 9.09176L19.6589 19.043C19.7115 19.0482 19.764 19.053 19.8166 19.0574L20.6448 9.09176ZM21.0559 10.2215L14.0166 3.11885L14.0164 3.11903L21.0559 10.2215ZM16.698 14.5408L9.6585 7.43828C7.09236 9.98166 6.09772 13.7115 7.05666 17.1949L16.698 14.5408ZM18.3137 20.4099L27.9788 17.8434C27.971 17.8142 27.9631 17.785 27.9551 17.7558L18.3137 20.4099ZM17.3673 21.1787L21.8597 12.2446C21.8414 12.2354 21.8231 12.2263 21.8048 12.2172L17.3673 21.1787ZM11.9989 18.5204L16.4364 9.55893C13.6399 8.17417 10.3573 8.17427 7.56086 9.55918L11.9989 18.5204ZM6.63785 21.1755L2.19983 12.2142C2.18167 12.2232 2.16355 12.2322 2.14545 12.2413L6.63785 21.1755ZM5.69144 20.4067L-3.9499 17.7525C-3.95793 17.7817 -3.96583 17.8109 -3.9736 17.8402L5.69144 20.4067ZM7.30715 14.5375L16.9485 17.1916C17.9078 13.7069 16.912 9.9757 14.344 7.43233L7.30715 14.5375ZM2.94597 10.2182L-4.09335 17.3209L-4.09086 17.3234L2.94597 10.2182ZM3.35709 9.08847L4.18523 19.0541C4.23784 19.0497 4.29042 19.045 4.34295 19.0398L3.35709 9.08847ZM8.65234 8.56388L9.6382 18.5152C13.0437 18.1778 16.0402 16.1223 17.5812 13.0667L8.65234 8.56388ZM11.3995 3.11651L2.49836 -1.44095C2.48906 -1.42277 2.4798 -1.40456 2.47061 -1.38633L11.3995 3.11651ZM11.9989 2.75V12.75V2.75ZM11.9989 3.59346L20.9261 -0.912583C19.2253 -4.28235 15.7718 -6.40722 11.9971 -6.40654C8.22242 -6.40586 4.76974 -4.27976 3.07006 -0.909381L11.9989 3.59346ZM9.32201 8.90159L0.393154 4.39875L0.393153 4.39875L9.32201 8.90159ZM8.72628 9.31022L7.74043 -0.641062L7.74043 -0.641062L8.72628 9.31022ZM3.60705 9.81738L2.62119 -0.133908C-1.23423 0.248042 -4.52211 2.8226 -5.81746 6.47392C-7.11281 10.1253 -6.18252 14.1963 -3.42978 16.9225L3.60705 9.81738ZM7.83491 14.0046L0.79809 21.1097L0.798099 21.1097L7.83491 14.0046ZM8.03025 14.7365L-1.61109 12.0824L-1.61109 12.0824L8.03025 14.7365ZM6.46446 20.4244L-3.17688 17.7702C-4.22294 21.5701 -2.93951 25.63 0.10066 28.1381C3.14083 30.6463 7.37064 31.1348 10.9025 29.3856L6.46446 20.4244ZM11.666 17.8483L16.104 26.8096L16.104 26.8096L11.666 17.8483ZM12.3317 17.8483L7.89416 26.8098L7.89418 26.8098L12.3317 17.8483ZM17.5407 20.4277L13.1032 29.3892C16.635 31.1381 20.8647 30.6494 23.9047 28.1413C26.9447 25.6331 28.2281 21.5733 27.182 17.7735L17.5407 20.4277ZM15.9749 14.7398L6.33355 17.394L6.33356 17.394L15.9749 14.7398ZM16.17 14.0081L9.13054 6.90559L9.13052 6.9056L16.17 14.0081ZM20.3949 9.82068L27.4344 16.9232C30.1856 14.1963 31.1146 10.1259 29.8188 6.47544C28.523 2.825 25.2355 0.251273 21.3808 -0.13061L20.3949 9.82068ZM15.2756 9.31351L16.2614 -0.637773L16.2614 -0.637774L15.2756 9.31351ZM14.68 8.90512L5.75274 13.4112L5.75275 13.4112L14.68 8.90512ZM11.2563 2.20902L6.03977 -6.32253L6.03976 -6.32253L11.2563 2.20902ZM12.7414 2.20902L17.958 -6.32253L17.958 -6.32253L12.7414 2.20902ZM13.2659 2.7747L4.36478 7.33216L4.36531 7.3332L13.2659 2.7747ZM13.2678 2.77855L22.1951 -1.72747C22.1863 -1.74499 22.1774 -1.76248 22.1684 -1.77995L13.2678 2.77855ZM15.8334 7.86143L6.90618 12.3675C8.44766 15.4214 11.4433 17.4755 14.8476 17.8127L15.8334 7.86143ZM20.7139 8.34494L19.7281 18.2962C19.764 18.2998 19.8 18.3031 19.8359 18.3063L20.7139 8.34494ZM21.4471 8.62941L27.5176 0.682813L27.5176 0.68281L21.4471 8.62941ZM21.9167 9.26857L31.3139 5.84898L31.3139 5.8489L21.9167 9.26857ZM21.9677 10.0601L12.2097 7.87352L12.2097 7.87356L21.9677 10.0601ZM21.5839 10.7542L14.5444 3.65165L14.5444 3.65172L21.5839 10.7542ZM17.5375 14.7646L10.498 7.66216C7.93189 10.2055 6.93725 13.9354 7.89619 17.4188L17.5375 14.7646ZM19.0386 20.2175L28.7037 17.6509C28.6959 17.6217 28.688 17.5925 28.68 17.5633L19.0386 20.2175ZM19.0165 21.0203L28.526 24.1139L28.526 24.1138L19.0165 21.0203ZM18.562 21.6825L24.8672 29.4443L24.8672 29.4442L18.562 21.6825ZM17.8207 21.9917L18.9001 31.9333L18.9002 31.9333L17.8207 21.9917ZM17.0329 21.8501L12.5471 30.7875L12.558 30.793L17.0329 21.8501ZM17.0304 21.8488L21.5162 12.9114C21.5001 12.9033 21.484 12.8953 21.4679 12.8873L17.0304 21.8488ZM11.9989 19.3574L16.4364 10.3958C13.6399 9.0111 10.3573 9.0112 7.56091 10.3961L11.9989 19.3574ZM6.97478 21.8455L2.53678 12.8843C2.52182 12.8917 2.50689 12.8991 2.49197 12.9066L6.97478 21.8455ZM6.97238 21.8467L11.4479 30.7893L11.4552 30.7856L6.97238 21.8467ZM6.18442 21.9884L5.105 31.93L5.10502 31.93L6.18442 21.9884ZM5.44316 21.6792L-0.862016 29.441L-0.862009 29.441L5.44316 21.6792ZM4.98863 21.017L-4.52084 24.1106L-4.52084 24.1106L4.98863 21.017ZM4.96656 20.2142L14.6316 22.7807L14.6316 22.7807L4.96656 20.2142ZM4.96831 20.2076L-4.67302 17.5534C-4.68106 17.5826 -4.68896 17.6118 -4.69673 17.6411L4.96831 20.2076ZM6.46757 14.7615L16.1089 17.4157C17.0682 13.931 16.0725 10.1998 13.5044 7.6564L6.46757 14.7615ZM2.41821 10.7511L-4.62112 17.8538L-4.61862 17.8563L2.41821 10.7511ZM2.03417 10.0568L11.7922 7.87026L2.03417 10.0568ZM2.08512 9.26528L-7.31201 5.84565L-7.31202 5.84565L2.08512 9.26528ZM2.5548 8.62612L8.62535 16.5727L8.62536 16.5727L2.5548 8.62612ZM3.28794 8.34165L4.1659 18.303C4.20189 18.2999 4.23785 18.2965 4.2738 18.2929L3.28794 8.34165ZM8.16826 7.85816L9.15412 17.8094C12.5597 17.4721 15.5562 15.4166 17.0971 12.361L8.16826 7.85816ZM10.7319 2.77469L1.83077 -1.78277C1.82146 -1.76459 1.81221 -1.74638 1.80301 -1.72815L10.7319 2.77469ZM3.67106 7.62255L6.42229 13.0732L24.2768 4.06112L21.5255 -1.38953L3.67106 7.62255ZM14.3637 18.5185L19.6589 19.043L21.6306 -0.859528L16.3354 -1.38412L14.3637 18.5185ZM19.8166 19.0574C18.0381 18.9096 16.3393 18.2553 14.9212 17.172L27.0623 1.27881C25.4432 0.0419261 23.5035 -0.70515 21.4729 -0.873892L19.8166 19.0574ZM14.9212 17.172C13.5032 16.0887 12.4251 14.6217 11.8148 12.9447L30.6091 6.10541C29.9123 4.1906 28.6814 2.51566 27.0623 1.27881L14.9212 17.172ZM11.8148 12.9447C11.2046 11.2677 11.0876 9.45097 11.4778 7.70956L30.9939 12.0827C31.4394 10.0944 31.3059 8.02012 30.6091 6.10541L11.8148 12.9447ZM11.4778 7.70956C11.868 5.96817 12.7491 4.37506 14.0166 3.11885L28.0952 17.3242C29.5424 15.8899 30.5483 14.0709 30.9939 12.0827L11.4778 7.70956ZM14.0164 3.11903L9.6585 7.43828L23.7375 21.6433L28.0954 17.324L14.0164 3.11903ZM7.05666 17.1949L8.67237 23.0641L27.9551 17.7558L26.3394 11.8866L7.05666 17.1949ZM8.64867 22.9765C8.18725 21.2388 8.23759 19.4047 8.79384 17.6948L27.8128 23.8818C28.4487 21.9269 28.5063 19.8301 27.9788 17.8434L8.64867 22.9765ZM8.79384 17.6948C9.35005 15.985 10.3884 14.4723 11.7839 13.3386L24.3943 28.8621C25.9898 27.566 27.1769 25.8366 27.8128 23.8818L8.79384 17.6948ZM11.7839 13.3386C13.1796 12.2049 14.8729 11.4986 16.6604 11.3045L18.8192 31.1877C20.8627 30.9658 22.7987 30.1583 24.3943 28.8621L11.7839 13.3386ZM16.6604 11.3045C18.4478 11.1104 20.2533 11.4369 21.8597 12.2446L12.8749 30.1129C14.7115 31.0363 16.7756 31.4095 18.8192 31.1877L16.6604 11.3045ZM21.8048 12.2172L16.4364 9.55893L7.56136 27.4819L12.9298 30.1402L21.8048 12.2172ZM7.56086 9.55918L2.19983 12.2142L11.0759 30.1367L16.4369 27.4817L7.56086 9.55918ZM2.14545 12.2413C3.75173 11.4336 5.55723 11.1071 7.34479 11.3012L5.18597 31.1844C7.22963 31.4063 9.29381 31.033 11.1302 30.1096L2.14545 12.2413ZM7.34479 11.3012C9.1324 11.4953 10.8257 12.2017 12.2212 13.3353L-0.389118 28.8588C1.20631 30.1549 3.14226 30.9625 5.18597 31.1844L7.34479 11.3012ZM12.2212 13.3353C13.6167 14.469 14.6551 15.9817 15.2113 17.6915L-3.80763 23.8785C-3.17172 25.8333 -1.9846 27.5628 -0.389118 28.8588L12.2212 13.3353ZM15.2113 17.6915C15.7675 19.4013 15.8179 21.2354 15.3565 22.9732L-3.9736 17.8402C-4.50117 19.8269 -4.44354 21.9238 -3.80763 23.8785L15.2113 17.6915ZM15.3328 23.0608L16.9485 17.1916L-2.33419 11.8833L-3.9499 17.7525L15.3328 23.0608ZM14.344 7.43233L9.98279 3.11309L-4.09086 17.3234L0.270328 21.6426L14.344 7.43233ZM9.98529 3.11556C11.2528 4.37178 12.1338 5.9649 12.524 7.70627L-6.992 12.0794C-6.54648 14.0676 -5.54057 15.8866 -4.09335 17.3209L9.98529 3.11556ZM12.524 7.70627C12.9142 9.44766 12.7973 11.2644 12.187 12.9414L-6.60723 6.10213C-7.304 8.01685 -7.43753 10.0911 -6.992 12.0794L12.524 7.70627ZM12.187 12.9414C11.5768 14.6184 10.4988 16.0854 9.08065 17.1687L-3.06046 1.27552C-4.67961 2.51242 -5.91045 4.18738 -6.60723 6.10213L12.187 12.9414ZM9.08065 17.1687C7.66252 18.252 5.96367 18.9063 4.18523 19.0541L2.52895 -0.877181C0.498394 -0.708443 -1.4413 0.0386043 -3.06046 1.27552L9.08065 17.1687ZM4.34295 19.0398L9.6382 18.5152L7.66649 -1.38741L2.37123 -0.862817L4.34295 19.0398ZM17.5812 13.0667L20.3283 7.61935L2.47061 -1.38633L-0.27651 4.06104L17.5812 13.0667ZM20.3006 7.67397C19.5181 9.20221 18.3289 10.4848 16.8642 11.3804L6.43101 -5.68266C4.75469 -4.65768 3.39383 -3.18988 2.49836 -1.44095L20.3006 7.67397ZM16.8642 11.3804C15.3994 12.2761 13.7158 12.75 11.9989 12.75V-7.25C10.034 -7.25 8.10732 -6.70763 6.43101 -5.68266L16.8642 11.3804ZM11.9989 12.75C10.282 12.75 8.59838 12.2761 7.13359 11.3804L17.5668 -5.68266C15.8904 -6.70763 13.9637 -7.25 11.9989 -7.25V12.75ZM7.13359 11.3804C5.66884 10.4848 4.47969 9.20224 3.6972 7.67397L21.4994 -1.44095C20.6039 -3.18991 19.243 -4.6577 17.5668 -5.68266L7.13359 11.3804ZM3.07006 -0.909381L0.393154 4.39875L18.2509 13.4044L20.9278 8.0963L3.07006 -0.909381ZM0.393153 4.39875C1.81854 1.57229 4.59031 -0.328987 7.74043 -0.641062L9.71214 19.2615C13.3731 18.8988 16.5943 16.6892 18.2509 13.4044L0.393153 4.39875ZM7.74043 -0.641062L2.62119 -0.133908L4.5929 19.7687L9.71214 19.2615L7.74043 -0.641062ZM-3.42978 16.9225L0.79809 21.1097L14.8717 6.89945L10.6439 2.71223L-3.42978 16.9225ZM0.798099 21.1097C-1.57737 18.7571 -2.49845 15.3058 -1.61109 12.0824L17.6716 17.3907C18.7028 13.6446 17.6324 9.63356 14.8717 6.89944L0.798099 21.1097ZM-1.61109 12.0824L-3.17688 17.7702L16.1058 23.0785L17.6716 17.3907L-1.61109 12.0824ZM10.9025 29.3856L16.104 26.8096L7.22801 8.88709L2.02644 11.4631L10.9025 29.3856ZM16.104 26.8096C13.5174 28.0906 10.4809 28.0907 7.89416 26.8098L16.7692 8.88683C13.763 7.39821 10.2342 7.3983 7.228 8.88709L16.104 26.8096ZM7.89418 26.8098L13.1032 29.3892L21.9782 11.4662L16.7692 8.88682L7.89418 26.8098ZM27.182 17.7735L25.6162 12.0857L6.33356 17.394L7.89935 23.0818L27.182 17.7735ZM25.6163 12.0857C26.5033 15.3079 25.5832 18.7579 23.2096 21.1106L9.13052 6.9056C6.37194 9.63974 5.3027 13.6493 6.33355 17.394L25.6163 12.0857ZM23.2095 21.1106L27.4344 16.9232L13.3554 2.71819L9.13054 6.90559L23.2095 21.1106ZM21.3808 -0.13061L16.2614 -0.637773L14.2897 19.2648L19.4091 19.772L21.3808 -0.13061ZM16.2614 -0.637774C19.4104 -0.325815 22.1813 1.57419 23.6072 4.39906L5.75275 13.4112C7.40984 16.6941 10.6301 18.9023 14.2897 19.2648L16.2614 -0.637774ZM23.6072 4.39908L20.9261 -0.912583L3.07167 8.0995L5.75274 13.4112L23.6072 4.39908ZM16.4729 10.7406C15.1259 11.5642 13.5777 12 11.9989 12V-8C9.89597 -8 7.83387 -7.41952 6.03977 -6.32253L16.4729 10.7406ZM11.9989 12C10.42 12 8.87183 11.5642 7.52484 10.7406L17.958 -6.32253C16.1639 -7.41952 14.1018 -8 11.9989 -8V12ZM7.52484 10.7406C6.17784 9.91695 5.08433 8.7375 4.36478 7.33216L22.167 -1.78276C21.2086 -3.65458 19.7521 -5.22553 17.958 -6.32253L7.52484 10.7406ZM4.36531 7.3332L4.36728 7.33705L22.1684 -1.77995L22.1664 -1.7838L4.36531 7.3332ZM4.3406 7.28457L6.90618 12.3675L24.7607 3.35541L22.1951 -1.72747L4.3406 7.28457ZM14.8476 17.8127L19.7281 18.2962L21.6998 -1.60635L16.8193 -2.08985L14.8476 17.8127ZM19.8359 18.3063C18.2158 18.1635 16.6693 17.5636 15.3765 16.576L27.5176 0.68281C25.7997 -0.629511 23.7447 -1.42669 21.5919 -1.61644L19.8359 18.3063ZM15.3765 16.576C14.0724 15.5797 13.0809 14.2306 12.5196 12.6882L31.3139 5.8489C30.5681 3.79942 29.2506 2.00667 27.5176 0.682813L15.3765 16.576ZM12.5196 12.6882C11.9584 11.1459 11.8508 9.47512 12.2097 7.87352L31.7257 12.2467C32.2026 10.1185 32.0596 7.89832 31.3139 5.84898L12.5196 12.6882ZM12.2097 7.87356C12.5686 6.27201 13.3788 4.8069 14.5444 3.65165L28.6233 17.8568C30.1722 16.3216 31.2489 14.3748 31.7257 12.2467L12.2097 7.87356ZM14.5444 3.65172L10.498 7.66216L24.577 21.8671L28.6234 17.8567L14.5444 3.65172ZM7.89619 17.4188L9.39728 22.8716L28.68 17.5633L27.1789 12.1105L7.89619 17.4188ZM9.37359 22.784C8.94901 21.1851 8.99578 19.4984 9.50704 17.9268L28.526 24.1138C29.2064 22.0224 29.2685 19.7781 28.7037 17.6509L9.37359 22.784ZM9.50706 17.9268C10.0186 16.3544 10.9734 14.9633 12.2568 13.9208L24.8672 29.4442C26.5748 28.057 27.8454 26.2061 28.526 24.1139L9.50706 17.9268ZM12.2568 13.9208C13.5402 12.8782 15.0975 12.2286 16.7413 12.0501L18.9002 31.9333C21.0874 31.6958 23.1595 30.8315 24.8672 29.4443L12.2568 13.9208ZM16.7413 12.0501C18.3795 11.8723 20.0342 12.1698 21.5077 12.9071L12.558 30.793C14.5186 31.774 16.7203 32.17 18.9001 31.9333L16.7413 12.0501ZM21.5187 12.9126L21.5162 12.9114L12.5446 30.7862L12.5471 30.7875L21.5187 12.9126ZM21.4679 12.8873L16.4364 10.3958L7.56141 28.3189L12.5929 30.8103L21.4679 12.8873ZM7.56091 10.3961L2.53678 12.8843L11.4128 30.8068L16.4369 28.3186L7.56091 10.3961ZM2.49197 12.9066L2.48957 12.9078L11.4552 30.7856L11.4576 30.7844L2.49197 12.9066ZM2.4969 12.9041C3.97046 12.1667 5.62534 11.8689 7.26383 12.0468L5.10502 31.93C7.28517 32.1667 9.48715 31.7706 11.4479 30.7893L2.4969 12.9041ZM7.26385 12.0469C8.90771 12.2253 10.465 12.8749 11.7483 13.9175L-0.862009 29.441C0.845624 30.8281 2.91769 31.6925 5.105 31.93L7.26385 12.0469ZM11.7483 13.9175C13.0317 14.96 13.9866 16.3511 14.4981 17.9235L-4.52084 24.1106C-3.84023 26.2028 -2.56967 28.0538 -0.862016 29.441L11.7483 13.9175ZM14.4981 17.9235C15.0096 19.4959 15.056 21.1826 14.6316 22.7807L-4.69848 17.6477C-5.26314 19.7741 -5.20145 22.0184 -4.52084 24.1106L14.4981 17.9235ZM14.6316 22.7807L14.6334 22.7741L-4.69673 17.6411L-4.69848 17.6477L14.6316 22.7807ZM14.6096 22.8618L16.1089 17.4157L-3.17376 12.1074L-4.67302 17.5534L14.6096 22.8618ZM13.5044 7.6564L9.45503 3.64597L-4.61862 17.8563L-0.569255 21.8667L13.5044 7.6564ZM9.45753 3.64845C10.6219 4.80242 11.4329 6.26687 11.7922 7.87026L-7.72386 12.2434C-7.24657 14.3734 -6.16877 16.3199 -4.62112 17.8538L9.45753 3.64845ZM11.7922 7.87026C12.1511 9.47179 12.0435 11.1426 11.4823 12.6849L-7.31202 5.84565C-8.0578 7.89507 -8.20072 10.1153 -7.72386 12.2434L11.7922 7.87026ZM11.4823 12.6849C10.921 14.2272 9.92957 15.5764 8.62535 16.5727L-3.51575 0.679521C-5.24881 2.00343 -6.56623 3.79622 -7.31201 5.84565L11.4823 12.6849ZM8.62536 16.5727C7.33251 17.5603 5.78598 18.1602 4.1659 18.303L2.40998 -1.61974C0.257224 -1.43 -1.79782 -0.632842 -3.51576 0.679524L8.62536 16.5727ZM4.2738 18.2929L9.15412 17.8094L7.18241 -2.09312L2.30208 -1.60964L4.2738 18.2929ZM17.0971 12.361L19.6607 7.27753L1.80301 -1.72815L-0.76059 3.35532L17.0971 12.361ZM19.633 7.33216C18.9133 8.73781 17.8196 9.91714 16.4729 10.7406L6.03976 -6.32253C4.24596 -5.22571 2.78932 -3.6549 1.83077 -1.78277L19.633 7.33216Z" fill="#FFDD35" mask="url(#path-1-inside-1_2503_8776)"/>
</g>
</g>
</svg>
